<svg xmlns="http://www.w3.org/2000/svg" x="0px" y="0px"
width="50" height="50"
viewBox="0 0 226 226"
style=" fill:#000000;"><g fill="none" fill-rule="nonzero" stroke="none" stroke-width="1" stroke-linecap="butt" stroke-linejoin="miter" stroke-miterlimit="10" stroke-dasharray="" stroke-dashoffset="0" font-family="none" font-weight="none" font-size="none" text-anchor="none" style="mix-blend-mode: normal"><path d="M0,226v-226h226v226z" fill="none"></path><g fill="#ffffff"><path d="M185.32,18.08h-144.64c-12.4752,0 -22.6,10.1248 -22.6,22.6v144.64c0,12.4752 10.1248,22.6 22.6,22.6h144.64c12.4752,0 22.6,-10.1248 22.6,-22.6v-144.64c0,-12.4752 -10.1248,-22.6 -22.6,-22.6zM76.84,90.4v85.88h-27.12v-85.88zM49.72,65.4044c0,-6.328 5.424,-11.1644 13.56,-11.1644c8.136,0 13.2436,4.8364 13.56,11.1644c0,6.328 -5.0624,11.4356 -13.56,11.4356c-8.136,0 -13.56,-5.1076 -13.56,-11.4356zM176.28,176.28h-27.12c0,0 0,-41.8552 0,-45.2c0,-9.04 -4.52,-18.08 -15.82,-18.2608h-0.3616c-10.9384,0 -15.4584,9.3112 -15.4584,18.2608c0,4.1132 0,45.2 0,45.2h-27.12v-85.88h27.12v11.5712c0,0 8.7236,-11.5712 26.2612,-11.5712c17.9444,0 32.4988,12.3396 32.4988,37.3352z"></path></g></g></svg>
