<svg xmlns="http://www.w3.org/2000/svg" x="0px" y="0px"
width="50" height="50"
viewBox="0 0 226 226"
style=" fill:#000000;"><g fill="none" fill-rule="nonzero" stroke="none" stroke-width="1" stroke-linecap="butt" stroke-linejoin="miter" stroke-miterlimit="10" stroke-dasharray="" stroke-dashoffset="0" font-family="none" font-weight="none" font-size="none" text-anchor="none" style="mix-blend-mode: normal"><path d="M0,226v-226h226v226z" fill="none"></path><g fill="#ffffff"><path d="M135.6,194.36h76.84l-18.08,-18.08l-0.12204,-128.80192l17.58732,-20.2948h-54.32588l-41.7648,102.7396l-45.68816,-102.80288h-56.48644l18.08,23.01132v109.3614l-27.12,34.86728h63.28l-27.12,-34.86728v-97.34272l58.76,132.21l-0.00904,0.06328l54.24904,-133.19988v115.0566zM49.31772,185.32h-26.31544l13.15772,-16.91384zM99.08744,171.30348l-50.14488,-112.82372l-9.9214,-22.31976h25.14928l43.30612,97.43312l3.6386,8.1812zM160.07128,182.67128l2.64872,-2.64872v-3.74256v-115.0566v-22.8712l0.86332,-2.1244h28.44436l-4.61944,5.3336l-2.21028,2.5538l0.00452,3.37644l0.11752,128.7974l0.00452,3.73804l2.6442,2.6442l2.64872,2.64872h-33.19036z"></path></g></g></svg>
