<svg xmlns="http://www.w3.org/2000/svg" x="0px" y="0px"
width="50" height="50"
viewBox="0 0 226 226"
style=" fill:#000000;"><g fill="none" fill-rule="nonzero" stroke="none" stroke-width="1" stroke-linecap="butt" stroke-linejoin="miter" stroke-miterlimit="10" stroke-dasharray="" stroke-dashoffset="0" font-family="none" font-weight="none" font-size="none" text-anchor="none" style="mix-blend-mode: normal"><path d="M0,226v-226h226v226z" fill="none"></path><g fill="#ffffff"><path d="M218.69738,54.51897c-7.41209,3.28406 -15.38213,5.47344 -23.79003,6.50809c8.54916,-5.07441 15.12434,-13.16803 18.21066,-22.73066c-7.99828,4.6895 -16.85819,8.13247 -26.28663,9.94753c-7.52863,-7.98062 -18.26716,-12.93144 -30.16394,-12.93144c-22.85425,0 -41.37566,18.3625 -41.37566,41.00134c0,3.20284 0.37431,6.32447 1.08056,9.35428c-34.38025,-1.72678 -64.87259,-18.06941 -85.27262,-42.87291c-3.58422,6.05962 -5.60056,13.15744 -5.60056,20.64722c0,14.23447 7.2885,26.76334 18.40134,34.14719c-6.78353,-0.20834 -13.16803,-2.09403 -18.758,-5.12031c0,0.12359 0,0.30722 0,0.48025c0,19.89153 14.26625,36.45309 33.17609,40.22447c-3.45709,0.94637 -7.10841,1.47253 -10.87272,1.47253c-2.67316,0 -5.27569,-0.30369 -7.797,-0.75569c5.26509,16.25434 20.54128,28.137 38.63894,28.48659c-14.16031,10.97866 -31.99313,17.55384 -51.38675,17.55384c-3.35116,0 -6.62462,-0.19069 -9.86278,-0.58266c18.31659,11.60016 40.07263,18.40134 63.42478,18.40134c76.09491,0 117.72128,-62.489 117.72128,-116.69722c0,-1.77622 -0.0565,-3.54538 -0.14125,-5.29334c8.12541,-5.73475 15.12434,-12.97381 20.65428,-21.24047"></path></g></g></svg>
