<svg
      xmlns="http://www.w3.org/2000/svg"
      x="0px"
      y="0px"
      width="45"
      height="45"
      viewBox="0 0 226 226"
      style=" fill:#000000;"
    >
      <g
        fill="none"
        fill-rule="nonzero"
        stroke="none"
        stroke-width="1"
        stroke-linecap="butt"
        stroke-linejoin="miter"
        stroke-miterlimit="10"
        stroke-dasharray=""
        stroke-dashoffset="0"
        font-family="none"
        font-weight="none"
        font-size="none"
        text-anchor="none"
        style="mix-blend-mode: normal"
      >
        <path d="M0,226v-226h226v226z" fill="none"></path>
        <g fill="#ffffff">
          <path
            d="M17.65625,7.0625c-5.84803,0.00661 -10.58714,4.74572 -10.59375,10.59375v176.5625c0.00661,5.84803 4.74572,10.58714 10.59375,10.59375h37.7023c4.09676,8.61994 12.78502,14.11602 22.32895,14.125h130.65625c5.84799,-0.00669 10.58706,-4.74576 10.59375,-10.59375v-14.125c-0.00669,-5.84799 -4.74576,-10.58706 -10.59375,-10.59375h-45.90625v-7.0625h45.90625c5.84799,-0.00669 10.58706,-4.74576 10.59375,-10.59375v-14.125c-0.00669,-5.84799 -4.74576,-10.58706 -10.59375,-10.59375h-45.90625v-7.0625h45.90625c5.84799,-0.00669 10.58706,-4.74576 10.59375,-10.59375v-14.125c-0.00669,-5.84799 -4.74576,-10.58706 -10.59375,-10.59375h-3.53125v-81.21875c-0.00661,-5.84803 -4.74572,-10.58714 -10.59375,-10.59375zM17.65625,14.125h176.5625c1.94933,0.00223 3.52902,1.58192 3.53125,3.53125v3.53125h-134.1875v7.0625h134.1875v70.625h-88.28125c-5.84799,0.00669 -10.58706,4.74576 -10.59375,10.59375v14.125c0.00669,5.84799 4.74576,10.58706 10.59375,10.59375h45.90625v7.0625h-56.5c-7.21195,-0.00392 -14.06554,3.14375 -18.76204,8.61689c-4.69649,5.47314 -6.76692,12.72523 -5.6679,19.85295c-12.28193,1.63925 -21.45915,12.10807 -21.47631,24.49891c0.00111,1.18168 0.08668,2.36177 0.25605,3.53125h-35.56855c-1.94933,-0.00223 -3.52902,-1.58192 -3.53125,-3.53125v-176.5625c0.00223,-1.94933 1.58192,-3.52902 3.53125,-3.53125zM21.1875,21.1875v7.0625h7.0625v-7.0625zM35.3125,21.1875v7.0625h7.0625v-7.0625zM49.4375,21.1875v7.0625h7.0625v-7.0625zM24.71875,38.84375c-1.95025,0.00002 -3.53123,1.581 -3.53125,3.53125v42.375c0.00002,1.95025 1.581,3.53123 3.53125,3.53125h162.4375c1.95025,-0.00002 3.53123,-1.581 3.53125,-3.53125v-42.375c-0.00002,-1.95025 -1.581,-3.53123 -3.53125,-3.53125zM28.25,45.90625h155.375v35.3125h-155.375zM38.84375,56.5v14.125c0.00002,1.95025 1.581,3.53123 3.53125,3.53125h28.25c1.95025,-0.00002 3.53123,-1.581 3.53125,-3.53125v-14.125h-7.0625v10.59375h-7.0625v-10.59375h-7.0625v10.59375h-7.0625v-10.59375zM81.21875,56.5v14.125c0.00002,1.95025 1.581,3.53123 3.53125,3.53125h28.25c1.95025,-0.00002 3.53123,-1.581 3.53125,-3.53125v-14.125h-7.0625v10.59375h-7.0625v-10.59375h-7.0625v10.59375h-7.0625v-10.59375zM123.59375,56.5v14.125c0.00002,1.95025 1.581,3.53123 3.53125,3.53125h28.25c1.95025,-0.00002 3.53123,-1.581 3.53125,-3.53125v-14.125h-7.0625v10.59375h-7.0625v-10.59375h-7.0625v10.59375h-7.0625v-10.59375zM165.96875,67.09375v7.0625h7.0625v-7.0625zM39.88692,95.34548c-1.67187,-0.05137 -3.15042,1.07733 -3.5416,2.70361l-8.92986,37.13847c-0.34098,1.41841 0.22535,2.9005 1.42533,3.73009c1.19998,0.82958 2.78658,0.83587 3.9931,0.01583l8.30137,-5.64258l8.18153,22.27205c0.67271,1.83036 2.70168,2.769 4.53217,2.09668l13.25857,-4.87012c0.87918,-0.32282 1.5941,-0.98169 1.98747,-1.83164c0.39337,-0.84996 0.43296,-1.82138 0.11007,-2.70053l-8.1824,-22.27205l9.97906,-1.07248c1.45096,-0.15544 2.65683,-1.18741 3.03456,-2.59694c0.37773,-1.40952 -0.1505,-2.9062 -1.32928,-3.76638l-30.84585,-22.52638c-0.57476,-0.41966 -1.26292,-0.65586 -1.97426,-0.67762zM41.97325,104.85036l19.19255,14.01551l-5.39429,0.58021c-1.08118,0.11621 -2.04852,0.72406 -2.62229,1.64777c-0.57376,0.92371 -0.68995,2.06026 -0.31496,3.08096l8.52294,23.20314l-6.62885,2.43463l-8.52294,-23.20228c-0.37495,-1.02082 -1.19933,-1.81195 -2.23473,-2.14456c-1.03539,-0.33261 -2.16628,-0.16961 -3.0656,0.44187l-4.48734,3.05019zM109.46875,105.9375h98.875c1.94933,0.00223 3.52902,1.58192 3.53125,3.53125v14.125c-0.00223,1.94933 -1.58192,3.52902 -3.53125,3.53125h-98.875c-1.94933,-0.00223 -3.52902,-1.58192 -3.53125,-3.53125v-14.125c0.00223,-1.94933 1.58192,-3.52902 3.53125,-3.53125zM113,113v7.0625h7.0625v-7.0625zM127.125,113v7.0625h17.65625v-7.0625zM162.4375,113v7.0625h42.375v-7.0625zM99.03363,148.31077c9.71992,0.08828 17.5406,8.01585 17.49693,17.73607c-0.04366,9.72022 -7.93525,17.57721 -17.65557,17.57816v7.0625c9.52831,-0.00881 18.20539,-5.48685 22.31084,-14.08534c9.51186,0.60681 16.8248,8.65411 16.52141,18.18047c-0.30339,9.52636 -8.11356,17.09203 -17.64475,17.09237h-42.375c-7.86954,0.00004 -14.78911,-5.20806 -16.96683,-12.77029c-2.17771,-7.56223 0.91221,-15.65279 7.5765,-19.8381c6.6643,-4.18531 15.29397,-3.4549 21.16001,1.79099l4.71063,-5.26239c-3.51727,-3.14848 -7.86437,-5.2212 -12.5249,-5.97192c-1.17662,-5.25832 0.11213,-10.76611 3.49963,-14.95649c3.3875,-4.19038 8.50295,-6.60466 13.89109,-6.55603zM116.15105,148.3125h92.1927c1.94933,0.00223 3.52902,1.58192 3.53125,3.53125v14.125c-0.00223,1.94933 -1.58192,3.52902 -3.53125,3.53125h-85.00605c1.13478,-7.80578 -1.53709,-15.68292 -7.18665,-21.1875zM130.65625,155.375v7.0625h14.125v-7.0625zM162.4375,155.375v7.0625h42.375v-7.0625zM137.33855,176.5625h18.03645v7.0625h-12.98355c-1.25636,-2.63271 -2.96681,-5.02343 -5.0529,-7.0625zM144.5252,190.6875h63.81855c1.94933,0.00223 3.52902,1.58192 3.53125,3.53125v14.125c-0.00223,1.94933 -1.58192,3.52902 -3.53125,3.53125h-71.0052c5.64956,-5.50458 8.32143,-13.38172 7.18665,-21.1875zM162.4375,197.75v7.0625h42.375v-7.0625z"
          ></path>
        </g>
      </g>
    </svg>
