<svg
        xmlns="http://www.w3.org/2000/svg"
        x="0px"
        y="0px"
        width="50"
        height="50"
        viewBox="0 0 226 226"
        style=" fill:#000000;"
      >
        <g
          fill="none"
          fill-rule="nonzero"
          stroke="none"
          stroke-width="1"
          stroke-linecap="butt"
          stroke-linejoin="miter"
          stroke-miterlimit="10"
          stroke-dasharray=""
          stroke-dashoffset="0"
          font-family="none"
          font-weight="none"
          font-size="none"
          text-anchor="none"
          style="mix-blend-mode: normal"
        >
          <path d="M0,226v-226h226v226z" fill="none"></path>
          <g id="original-icon" fill="#ffffff">
            <path
              d="M198.69461,31.64c0,0 -27.97299,1.38316 -48.63414,28.92977c-6.85232,9.13643 -11.40894,15.86714 -15.39625,19.85445c-3.98731,3.98731 -6.84866,5.45578 -12.62422,5.45578c-3.28566,0 -8.99148,-1.76462 -16.09367,-3.18695c-7.10219,-1.42234 -15.79977,-2.31142 -25.68102,0.15891c-2.90398,0.726 -5.53243,1.57334 -7.94531,2.5425c-2.53008,-1.16355 -7.0027,-2.92833 -12.76547,-3.68133c-8.76083,-1.14475 -20.6056,0.29159 -30.98672,9.8875c-7.88505,7.28809 -14.06311,10.28692 -18.06234,11.53836c-1.99962,0.62572 -3.45787,0.81345 -4.34344,0.86516c-0.88557,0.05171 -0.89164,0.01766 -0.89164,0.01766c-2.24464,-0.37301 -4.41667,0.98055 -5.07072,3.15995c-0.65404,2.1794 0.41379,4.50525 2.4929,5.42981c0,0 1.00777,0.28794 1.07703,0.31781v0.00883c0,0 0.04354,-0.00009 0.04414,0c0.88048,0.37945 5.77809,2.57294 13.18922,3.85789c8.04093,1.39414 18.46093,1.6556 26.50203,-4.79367c4.62394,-3.71005 8.653,-6.25473 12.05922,-8.12188c-0.97232,4.02975 -1.32422,8.54462 -1.32422,13.63945c0,7.53333 -3.48165,11.64903 -7.23023,14.46047c-3.74859,2.81144 -7.42445,3.75195 -7.42445,3.75195c-1.35126,0.33722 -2.47165,1.27848 -3.03687,2.55133l-18.08,40.68c-0.98169,2.20875 -0.05217,4.79896 2.10992,5.87953l9.04,4.52c1.95533,0.97838 4.33061,0.41708 5.64117,-1.33305l26.28133,-35.03883c0.6718,-0.13338 1.23673,-0.33127 1.88922,-0.47672c-0.34908,1.30469 -0.09649,2.69713 0.68859,3.79609l22.6,31.64c0.84995,1.18736 2.22111,1.89102 3.68133,1.88922h13.56c1.61179,0.00113 3.10226,-0.85603 3.9119,-2.24971c0.80965,-1.39368 0.81598,-3.11303 0.01662,-4.51264l-16.35852,-28.62078c7.88848,-6.1843 13.8043,-13.33725 17.32961,-18.0182c1.72099,0.63035 3.59975,1.25257 5.81774,1.83625c7.675,2.01973 17.81601,3.03442 29.96266,1.43898v7.02719l-25.10719,16.73812c-1.25739,0.83833 -2.01269,2.24954 -2.01281,3.76078v13.56c-0.00169,1.60303 0.84572,3.08706 2.22715,3.90031c1.38143,0.81324 3.09023,0.83406 4.49106,0.05469l40.68,-22.6c1.15949,-0.64643 1.97623,-1.76985 2.23352,-3.07219l3.21344,-16.08484l11.35297,9.07531l17.63859,35.26836c1.00543,2.01322 3.33856,2.98033 5.47344,2.26883l13.56,-4.52c1.24364,-0.41443 2.24614,-1.34832 2.74755,-2.55951c0.50142,-1.21119 0.45237,-2.5804 -0.13443,-3.75261l-18.08,-36.16c-0.08401,-0.16755 -0.17836,-0.32971 -0.2825,-0.48555l-16.81758,-25.23078c1.79571,-3.51935 5.10238,-11.33613 1.07703,-23.41219c-2.49686,-7.49059 1.12863,-14.31635 3.79609,-18.49492c2.11989,1.06449 4.66343,1.84508 8.18367,1.84508c3.44483,0 5.94467,1.97326 7.66281,3.93734c2.96039,3.37767 7.97806,4.57898 12.16516,2.48953l0.58266,-0.2825c0.00589,-0.00293 0.01178,-0.00587 0.01766,-0.00883c5.16871,-2.58008 7.12923,-9.1828 4.14922,-14.16031c-0.82041,-1.37534 -1.90303,-2.81233 -3.30172,-4.21101l-16.75578,-16.75578v-11.68844c0.00091,-1.23156 -0.50071,-2.41018 -1.38888,-3.26335c-0.88817,-0.85317 -2.08599,-1.30703 -3.31652,-1.25665zM194.36,41.83648v7.88352c0.00023,1.1987 0.47656,2.34823 1.32422,3.19578l18.08,18.08c0.86711,0.86712 1.48884,1.70807 1.93336,2.45422c0.00294,0.00295 0.00588,0.00589 0.00883,0.00883c0.33575,0.56083 0.15813,1.11667 -0.44141,1.42133v0.00883l-0.58266,0.29133c-0.00294,0 -0.00589,0 -0.00883,0c-0.42967,0.21443 -0.88801,0.13028 -1.32422,-0.36195h-0.00883c-2.70296,-3.08902 -7.57578,-7.01836 -14.46047,-7.01836c-3.68254,0 -4.50837,-0.82052 -4.60828,-0.91813c-0.34847,-1.68565 -1.62402,-3.02711 -3.28999,-3.46c-1.66597,-0.43289 -3.43321,0.11793 -4.55821,1.42071c0,0 -13.65335,14.86018 -8.10422,31.50758c3.9292,11.78761 -1.21828,18.57437 -1.21828,18.57437c-1.07046,1.52553 -1.095,3.55165 -0.0618,5.10266l17.92109,26.88164l15.62578,31.25156l-4.89961,1.6332l-16.3232,-32.65524c-0.29207,-0.58543 -0.70773,-1.10049 -1.21828,-1.50961l-22.6,-18.08c-1.19766,-0.95872 -2.79983,-1.24459 -4.25516,-0.75922c-19.53004,6.51001 -34.35224,5.3679 -44.31719,2.74555c-9.96495,-2.62235 -14.70766,-6.50633 -14.70766,-6.50633c-0.95598,-0.76526 -2.18152,-1.10994 -3.39625,-0.95519c-1.21473,0.15475 -2.31471,0.7957 -3.04828,1.7762c0,0 -12.36904,16.6132 -37.80203,20.85203c-1.14863,0.19029 -2.17955,0.81643 -2.87797,1.74797l-24.85117,33.14078l-1.80094,-0.90047l15.73172,-35.39195c1.67582,-0.52059 4.13228,-1.02019 8.21015,-4.07859c5.29141,-3.96856 10.84977,-11.15286 10.84977,-21.69953c0,-8.66333 1.13945,-14.04465 3.68133,-17.60328c2.54188,-3.55864 6.95204,-6.16311 15.49336,-8.29844c8.19876,-2.04969 15.27746,-1.35147 21.71719,-0.0618c6.43973,1.28966 12.04146,3.36352 17.86813,3.36352c7.78444,0 13.96309,-3.05153 19.01578,-8.10422c5.05269,-5.05269 9.53607,-11.88197 16.24375,-20.82555c15.34568,-20.45973 31.19339,-23.40743 37.06047,-24.15375zM52.93344,90.40883c1.89838,-0.0693 3.7263,0.04769 5.45578,0.27367c1.79543,0.23459 1.56913,0.54344 3.02805,0.94461c-1.41449,0.37724 -1.78329,0.29651 -4.39641,1.42133c-4.76042,2.0491 -11.37531,5.65834 -19.16586,11.90914c-4.16052,3.3369 -10.44555,3.6953 -16.48211,3.0457c3.98486,-2.21905 8.3683,-5.16925 13.3393,-9.76391c6.19791,-5.72912 12.5261,-7.62265 18.22125,-7.83055zM99.96969,132.19234c0.20328,0.12526 0.47812,0.27526 0.69742,0.40609c-3.7004,5.02497 -9.67036,12.23815 -17.2943,17.32078c-1.97774,1.31659 -2.59875,3.9395 -1.42133,6.00312l14.21328,24.87766h-3.44297l-19.40422,-27.16414l3.66367,-5.32336c13.23448,-5.55745 20.40953,-13.11429 22.98844,-16.12016zM161.64297,136.01492l0.77687,0.6268l-3.72547,18.61851l-32.13437,17.85047v-3.4518l25.10719,-16.73812c1.25739,-0.83833 2.01269,-2.24954 2.01281,-3.76078v-11.04398c2.58491,-0.58623 5.22822,-1.26175 7.96297,-2.10109z"
            ></path>
          </g>
        </g>
      </svg>
